Coordinates
version=1
nRows=5
nColumns=40
inDegrees=yes

Units are S.I. units (second, meters, Newtons, ...)
If the header above contains a line with 'inDegrees', this indicates whether rotational values are in degrees (yes) or radians (no).

endheader
time	pelvis_tilt	pelvis_list	pelvis_rotation	pelvis_tx	pelvis_ty	pelvis_tz	hip_flexion_r	hip_adduction_r	hip_rotation_r	knee_angle_r	knee_angle_r_beta	ankle_angle_r	subtalar_angle_r	mtp_angle_r	hip_flexion_l	hip_adduction_l	hip_rotation_l	knee_angle_l	knee_angle_l_beta	ankle_angle_l	subtalar_angle_l	mtp_angle_l	lumbar_extension	lumbar_bending	lumbar_rotation	arm_flex_r	arm_add_r	arm_rot_r	elbow_flex_r	pro_sup_r	wrist_flex_r	wrist_dev_r	arm_flex_l	arm_add_l	arm_rot_l	elbow_flex_l	pro_sup_l	wrist_flex_l	wrist_dev_l
      4.78500000	    -22.80776133	     -0.91277779	      5.64443860	      0.11469964	      0.47466121	     -1.15565392	    108.63098968	    -49.06296711	     23.07841855	    110.33578629	      1.92572275	     33.90575949	      9.91516461	      0.00000000	    110.60077134	    -40.64987217	     18.04452264	    106.86385855	      1.86512618	     30.43792936	     20.28963792	      0.00000000	      0.00000000	      0.00000000	      0.00000000	     44.98667759	    -15.00053529	     44.98667759	     75.00017660	     45.00000026	      0.00000000	      0.00000000	     44.98667759	    -15.00053529	     44.98667759	     75.00017660	     45.00000026	      0.00000000	      0.00000000
      4.79000000	    -22.72621298	     -1.18439981	      5.61912895	      0.11488090	      0.47357425	     -1.15593769	    108.34527332	    -49.09304855	     22.80780305	    110.47494051	      1.92815145	     34.00524808	      9.92008089	      0.00000000	    111.03107394	    -40.55131385	     18.62086019	    107.06696460	      1.86867105	     30.46802132	     20.26087615	      0.00000000	      0.00000000	      0.00000000	      0.00000000	     44.98714411	    -15.00050594	     44.98714411	     75.00017653	     45.00000026	      0.00000000	      0.00000000	     44.98714411	    -15.00050594	     44.98714411	     75.00017653	     45.00000026	      0.00000000	      0.00000000
      4.79500000	    -22.71153957	     -0.97815720	      5.69222155	      0.11501301	      0.47217185	     -1.15593702	    108.89831956	    -49.07136162	     23.48390768	    110.68842894	      1.93187753	     33.98949517	      9.94125077	      0.00000000	    110.97630193	    -40.52945751	     18.47810571	    107.25035174	      1.87187176	     30.56344904	     20.28412934	      0.00000000	      0.00000000	      0.00000000	      0.00000000	     44.98788757	    -15.00046030	     44.98788757	     75.00017642	     45.00000026	      0.00000000	      0.00000000	     44.98788757	    -15.00046030	     44.98788757	     75.00017642	     45.00000026	      0.00000000	      0.00000000
      4.80000000	    -22.66956087	     -1.16281068	      5.66787515	      0.11514835	      0.47106910	     -1.15614561	    108.78150375	    -49.07381745	     23.36025086	    110.82369595	      1.93423838	     34.04156475	      9.94398754	      0.00000000	    111.33637637	    -40.46602002	     18.91643886	    107.43564329	      1.87510571	     30.60647346	     20.30772245	      0.00000000	      0.00000000	      0.00000000	      0.00000000	     44.98843035	    -15.00042797	     44.98843035	     75.00017635	     45.00000026	      0.00000000	      0.00000000	     44.98843035	    -15.00042797	     44.98843035	     75.00017635	     45.00000026	      0.00000000	      0.00000000
      4.80500000	    -22.63111727	     -1.27207381	      5.65243862	      0.11530202	      0.46996998	     -1.15630478	    108.78425580	    -49.07401546	     23.38034376	    110.96677069	      1.93673551	     34.10769563	     10.01642710	      0.00000000	    111.61283103	    -40.43717177	     19.22344730	    107.60624902	      1.87808334	     30.63844407	     20.29319845	      0.00000000	      0.00000000	      0.00000000	      0.00000000	     44.98893494	    -15.00039882	     44.98893494	     75.00017629	     45.00000026	      0.00000000	      0.00000000	     44.98893494	    -15.00039882	     44.98893494	     75.00017629	     45.00000026	      0.00000000	      0.00000000
